<svg xmlns="http://www.w3.org/2000/svg" xmlns:xlink="http://www.w3.org/1999/xlink" width="2048" zoomAndPan="magnify" viewBox="0 0 1536 1535.999932" height="2048" preserveAspectRatio="xMidYMid meet" version="1.0"><path stroke-linecap="butt" transform="matrix(0.75, 0, 0, 0.75, 505.483647, 594.850825)" fill="none" stroke-linejoin="miter" d="M 0.000971322 2.000984 L 655.360403 2.000984 " stroke="#ffffff" stroke-width="4" stroke-opacity="1" stroke-miterlimit="4"/><path fill="#ff5757" d="M 1006.808594 1535.601562 C 1032.507812 1506.46875 1045.933594 1467.382812 1036.414062 1415.023438 C 997.65625 1201.828125 828.0625 1252.699219 852.285156 1061.300781 C 852.285156 1061.300781 730.8125 1172.480469 730.8125 1267.6875 C 730.8125 1275.742188 731.679688 1283.703125 733.578125 1291.460938 C 757.800781 1390.773438 580.953125 1049.230469 765 845.738281 C 759.347656 850.945312 347.867188 1232.261719 463.035156 1483.304688 C 408.894531 1445.886719 359.828125 1393.730469 321.828125 1321.769531 C 133.398438 964.863281 503.625 490.917969 503.625 490.917969 C 502.5 719.761719 578.933594 757.664062 578.933594 757.664062 C 736.996094 374.9375 433.984375 0.265625 433.984375 0.265625 C 549 8.496094 752.824219 76.167969 987.945312 454.355469 C 1223.066406 832.511719 970.300781 935.203125 1037.023438 1038.449219 C 1103.75 1141.722656 1251.695312 811.925781 1251.695312 811.925781 C 1402.542969 1318.691406 1111.5625 1491.199219 1006.808594 1535.601562 Z M 1006.808594 1535.601562 " fill-opacity="1" fill-rule="nonzero"/></svg>